<?xml version="1.0" encoding="UTF-8"?>
<svg version="1.1" xmlns="http://www.w3.org/2000/svg" width="551" height="289">
<path d="M0 0 C181.83 0 363.66 0 551 0 C551 95.37 551 190.74 551 289 C369.17 289 187.34 289 0 289 C0 193.63 0 98.26 0 0 Z " fill="#F7F4ED" transform="translate(0,0)"/>
<path d="M0 0 C9.9 0 19.8 0 30 0 C30 21.78 30 43.56 30 66 C41.55 66 53.1 66 65 66 C65 44.22 65 22.44 65 0 C90.42847969 -0.68042835 115.84945903 -1.23160707 141.28476906 -1.55436516 C153.09813644 -1.70829296 164.90539971 -1.91760328 176.71484375 -2.26318359 C187.02320295 -2.56469061 197.32714086 -2.7563029 207.63978708 -2.82265484 C213.09014084 -2.86138795 218.52786352 -2.95049309 223.97410965 -3.1719017 C260.83612612 -4.61243625 260.83612612 -4.61243625 275.75199115 8.41433084 C280.47290062 12.83017142 284.92682145 17.50531868 289.07089233 22.46627808 C289.57935817 23.05656508 290.08782402 23.64685209 290.61169791 24.25502658 C295.19271862 30.22899301 294 32.36613682 294 41 C283.11 41 272.22 41 261 41 C261 46.28 261 51.56 261 57 C262.27875 57.226875 263.5575 57.45375 264.875 57.6875 C278.81061734 60.87153776 289.69038393 70.64654904 297.5546875 82.3046875 C309.0341127 100.63750088 311.71267375 121.9700339 307 143 C306.76667969 144.09828125 306.53335937 145.1965625 306.29296875 146.328125 C302.29099315 162.62840918 292.69436761 176.75417847 278.765625 186.19140625 C264.96872256 194.09656925 248.97057333 196.52352702 233.41796875 192.74609375 C216.76486269 187.60757475 204.11436738 178.08079035 195.75 162.75 C186.18180438 144.49597839 183.77843359 122.21726799 188.96484375 102.1953125 C195.00261809 83.55795622 205.48244052 68.33940407 223 59 C231.40530896 55.08215351 239.92584625 55.76930118 249 56 C249 51.05 249 46.1 249 41 C198.18 41 147.36 41 95 41 C95 104.36 95 167.72 95 233 C85.1 233 75.2 233 65 233 C65 187.79 65 142.58 65 96 C53.45 96 41.9 96 30 96 C30 116.13 30 136.26 30 157 C20.1 157 10.2 157 0 157 C0 105.19 0 53.38 0 0 Z " fill="#1F1F1D" transform="translate(118,43)"/>
<path d="M0 0 C0.33 0 0.66 0 1 0 C1 2.31 1 4.62 1 7 C2.27875 7.226875 3.5575 7.45375 4.875 7.6875 C18.81061734 10.87153776 29.69038393 20.64654904 37.5546875 32.3046875 C49.0341127 50.63750088 51.71267375 71.9700339 47 93 C46.76667969 94.09828125 46.53335938 95.1965625 46.29296875 96.328125 C42.29099315 112.62840918 32.69436761 126.75417847 18.765625 136.19140625 C4.96872256 144.09656925 -11.02942667 146.52352702 -26.58203125 142.74609375 C-43.23513731 137.60757475 -55.88563262 128.08079035 -64.25 112.75 C-73.81819562 94.49597839 -76.22156641 72.21726799 -71.03515625 52.1953125 C-64.99188616 33.54099201 -54.51431347 18.36408839 -37 9 C-28.21985053 4.78193842 -18.49293273 5.7207961 -9 6 C-8.67 5.01 -8.34 4.02 -8 3 C-8 3.66 -8 4.32 -8 5 C-6.35 4.01 -4.7 3.02 -3 2 C-2.505 3.485 -2.505 3.485 -2 5 C-1.34 5 -0.68 5 0 5 C0 3.35 0 1.7 0 0 Z " fill="#21211E" transform="translate(378,93)"/>
<path d="M0 0 C11.22 0 22.44 0 34 0 C34 46.86 34 93.72 34 142 C22.78 142 11.56 142 0 142 C0 95.14 0 48.28 0 0 Z " fill="#232321" transform="translate(242,95)"/>
<path d="M0 0 C9.44359845 6.31351686 14.93762697 14.2608575 17.4609375 25.296875 C19.55091219 39.41177654 19.39954971 55.02308176 10.66796875 66.90234375 C5.34725068 73.39436743 0.65745047 78.27758769 -7.98046875 79.28515625 C-17.6942472 79.72927977 -24.61711416 77.28000607 -31.8125 70.75 C-38.96497561 63.02397682 -42.19916647 52.94649084 -42.6875 42.625 C-42.72439941 41.86735352 -42.76129883 41.10970703 -42.79931641 40.32910156 C-43.32998216 27.67476447 -41.1953873 16.33760378 -32.6875 6.375 C-23.94606571 -2.42366135 -11.81454866 -6.1200578 0 0 Z " fill="#F7F5EE" transform="translate(378,129.0625)"/>
<path d="M0 0 C8.58 0 17.16 0 26 0 C25 6 25 6 24 7 C31.92 7.33 39.84 7.66 48 8 C47.34 9.32 46.68 10.64 46 12 C50.2904578 12.80446084 52.50758073 13.1372316 56.8125 11.9375 C58.80078125 11.59375 58.80078125 11.59375 61 12 C64.75858451 14.96815257 67.88738911 18.37074672 71 22 C71.928125 21.01 71.928125 21.01 72.875 20 C75 18 75 18 77 18 C77.33 17.34 77.66 16.68 78 16 C82.24086087 17.41362029 85.03919641 19.40666334 88.3125 22.4375 C89.19550781 23.21996094 90.07851563 24.00242187 90.98828125 24.80859375 C93 28 93 28 93 39 C82.11 39 71.22 39 60 39 C60 41.97 60 44.94 60 48 C59.5 51.0625 59.5 51.0625 59 53 C58.34 53 57.68 53 57 53 C56.34 52.34 55.68 51.68 55 51 C54.21625 51.495 53.4325 51.99 52.625 52.5 C50 54 50 54 48 54 C48 49.05 48 44.1 48 39 C-2.49 39 -52.98 39 -105 39 C-105 38.67 -105 38.34 -105 38 C-82.45438016 36.78034849 -59.91887837 36.87944819 -37.34838867 36.93133545 C-32.33252391 36.94173454 -27.31665378 36.94616787 -22.30078125 36.95117188 C-12.5338405 36.96176046 -2.76692294 36.97873002 7 37 C7.99 34.69 8.98 32.38 10 30 C1.75 29.67 -6.5 29.34 -15 29 C-15 27 -15 27 -13.125 24.875 C-11 23 -11 23 -9 23 C-8.773125 22.443125 -8.54625 21.88625 -8.3125 21.3125 C-7 19 -7 19 -4.3125 16.5625 C-3.1678125 15.2940625 -3.1678125 15.2940625 -2 14 C-2.04979584 11.239835 -2.04979584 11.239835 -3 9 C-2.34 9 -1.68 9 -1 9 C-1 8.34 -1 7.68 -1 7 C-0.34 7 0.32 7 1 7 C0.505 3.535 0.505 3.535 0 0 Z " fill="#252523" transform="translate(319,45)"/>
<path d="M0 0 C2.43017578 -0.34057617 2.43017578 -0.34057617 5.4453125 -0.29296875 C6.52167969 -0.28330078 7.59804688 -0.27363281 8.70703125 -0.26367188 C10.39892578 -0.2259668 10.39892578 -0.2259668 12.125 -0.1875 C13.26066406 -0.17396484 14.39632812 -0.16042969 15.56640625 -0.14648438 C18.37807387 -0.11104319 21.18880417 -0.06163517 24 0 C25.0625 1.8125 25.0625 1.8125 26 4 C25.67 4.99 25.34 5.98 25 7 C24.34 7 23.68 7 23 7 C23 8.32 23 9.64 23 11 C22.48045561 14.6154596 20.97081759 16.54627548 18.5625 19.25 C17.94503906 19.95640625 17.32757813 20.6628125 16.69140625 21.390625 C15 23 15 23 13 23 C12.34 24.32 11.68 25.64 11 27 C10.34 27 9.68 27 9 27 C9 27.66 9 28.32 9 29 C19.56 29 30.12 29 41 29 C41 29.33 41 29.66 41 30 C38.69 30.33 36.38 30.66 34 31 C34 31.66 34 32.32 34 33 C33.34 33 32.68 33 32 33 C31.67 34.65 31.34 36.3 31 38 C5.59 38 -19.82 38 -46 38 C-45.01 37.01 -44.02 36.02 -43 35 C-42.67 34.34 -42.34 33.68 -42 33 C-41.34 32.01 -40.68 31.02 -40 30 C-43.63 30 -47.26 30 -51 30 C-51 29.67 -51 29.34 -51 29 C-40.11 29 -29.22 29 -18 29 C-20.31 26.36 -22.62 23.72 -25 21 C-25.66 20.01 -26.32 19.02 -27 18 C-26.01 17.34 -25.02 16.68 -24 16 C-22.94895617 14.36504293 -21.94011682 12.70116376 -21 11 C-15.33870569 15.69766975 -10.14771096 20.74723372 -5 26 C1.10102879 20.9600197 6.33175796 15.66824204 12 10 C1.11 9.67 -9.78 9.34 -21 9 C-21 8.67 -21 8.34 -21 8 C-16.05 7.67 -11.1 7.34 -6 7 C-5.67 6.01 -5.34 5.02 -5 4 C-4.01 3.67 -3.02 3.34 -2 3 C-1.34 2.01 -0.68 1.02 0 0 Z " fill="#21211E" transform="translate(295,45)"/>
<path d="M0 0 C9.72736137 -0.4204783 19.45151741 -0.73852206 29.18604088 -0.93261909 C33.70871172 -1.02587543 38.22509249 -1.15184725 42.74414062 -1.35791016 C74.36530559 -2.76369326 74.36530559 -2.76369326 83.49316406 4.08691406 C88.00634976 8.23175284 91.75002675 12.8100624 95 18 C94.34 18.66 93.68 19.32 93 20 C92.34 20 91.68 20 91 20 C89.43733479 21.099763 89.43733479 21.099763 87.875 22.5 C86.92625 23.325 85.9775 24.15 85 25 C84.40574219 24.26652344 83.81148438 23.53304687 83.19921875 22.77734375 C78.55087519 17.16457705 78.55087519 17.16457705 72.0625 14.59375 C69.21011411 14.88605757 69.21011411 14.88605757 66.54296875 15.52734375 C63.71726654 16.05255107 61.75983179 15.71844813 59 15 C59.99 13.35 60.98 11.7 62 10 C53.75 10 45.5 10 37 10 C37.66 8.68 38.32 7.36 39 6 C38.505 5.01 38.505 5.01 38 4 C38.66 4 39.32 4 40 4 C40 3.34 40 2.68 40 2 C20.2 1.505 20.2 1.505 0 1 C0 0.67 0 0.34 0 0 Z " fill="#20201D" transform="translate(305,43)"/>
<path d="M0 0 C11.22 0 22.44 0 34 0 C27.32818533 7.78378378 27.32818533 7.78378378 24.375 10.625 C22.32023795 12.60258789 20.85053878 14.24173423 19.3359375 16.69140625 C16.75543697 19.24170025 16.32074607 19.34964433 12.890625 19.48828125 C11.3429014 19.45987088 9.79577508 19.39517351 8.25 19.3125 C5.5275 19.209375 2.805 19.10625 0 19 C0 12.73 0 6.46 0 0 Z " fill="#F1EFEB" transform="translate(213,54)"/>
<path d="M0 0 C11.22 0 22.44 0 34 0 C30.13609192 4.50789276 26.33926648 8.79767029 22.125 12.9375 C21.37863281 13.67709961 21.37863281 13.67709961 20.6171875 14.43164062 C19.41379715 15.62345992 18.20724635 16.81208678 17 18 C11.00040771 13.04381506 5.19144551 7.80773381 0 2 C0 1.34 0 0.68 0 0 Z " fill="#F0EFEA" transform="translate(274,54)"/>
<path d="M0 0 C6.01826738 4.97161218 11.66337352 10.29829243 17 16 C17 16.33 17 16.66 17 17 C6.11 17 -4.78 17 -16 17 C-12.25711426 12.63329996 -8.68596348 8.56858559 -4.625 4.5625 C-3.75101562 3.69753906 -2.87703125 2.83257812 -1.9765625 1.94140625 C-1.32429688 1.30074219 -0.67203125 0.66007812 0 0 Z " fill="#F5F3EE" transform="translate(260,56)"/>
<path d="M0 0 C5.93974924 4.80235045 11.11699851 10.12046759 16 16 C16 16.33 16 16.66 16 17 C5.77 17 -4.46 17 -15 17 C-14.01 15.35 -13.02 13.7 -12 12 C-11.34 12 -10.68 12 -10 12 C-9.75507813 11.42765625 -9.51015625 10.8553125 -9.2578125 10.265625 C-7.78889901 7.61975598 -6.04651756 5.85146861 -3.875 3.75 C-3.15054687 3.04359375 -2.42609375 2.3371875 -1.6796875 1.609375 C-1.12539063 1.07828125 -0.57109375 0.5471875 0 0 Z " fill="#F6F4EF" transform="translate(320,56)"/>
<path d="M0 0 C10.23 0 20.46 0 31 0 C27.40777239 4.19093221 24.01936764 8.10213793 20.125 11.9375 C19.34382813 12.70964844 18.56265625 13.48179688 17.7578125 14.27734375 C17.17773438 14.84582031 16.59765625 15.41429688 16 16 C11.71357676 14.33536962 8.91382783 11.20924163 5.75 8 C5.19570313 7.4534375 4.64140625 6.906875 4.0703125 6.34375 C0 2.2533867 0 2.2533867 0 0 Z " fill="#F6F4F0" transform="translate(335,55)"/>
<path d="M0 0 C0.99 0 1.98 0 3 0 C2.67 3.3 2.34 6.6 2 10 C2.99 9.01 3.98 8.02 5 7 C5 8.32 5 9.64 5 11 C-5.89 11 -16.78 11 -28 11 C-27.01 10.01 -26.02 9.02 -25 8 C-24.67 7.34 -24.34 6.68 -24 6 C-23.34 5.01 -22.68 4.02 -22 3 C-25.63 3 -29.26 3 -33 3 C-33 2.67 -33 2.34 -33 2 C-22.11 2 -11.22 2 0 2 C0 1.34 0 0.68 0 0 Z " fill="#1B1C1A" transform="translate(277,72)"/>
<path d="M0 0 C5.64426769 4.68354127 11.0058046 9.6207646 16 15 C16 15.33 16 15.66 16 16 C5.77 16 -4.46 16 -15 16 C-11.40777239 11.80906779 -8.01936764 7.89786207 -4.125 4.0625 C-3.34382813 3.29035156 -2.56265625 2.51820312 -1.7578125 1.72265625 C-1.17773438 1.15417969 -0.59765625 0.58570313 0 0 Z " fill="#F7F5F1" transform="translate(379,57)"/>
<path d="M0 0 C5.67023649 1.35005631 8.17957309 3.8157229 12 8 C11 10 11 10 8 12 C7.27034634 14.56282742 7.27034634 14.56282742 7 17 C6.67 17 6.34 17 6 17 C6 15.35 6 13.7 6 12 C5.34 12.99 4.68 13.98 4 15 C3.23864746 14.76228882 3.23864746 14.76228882 2.46191406 14.51977539 C-0.81322636 13.82830633 -4.05696069 13.7656084 -7.390625 13.68359375 C-8.09523865 13.66281265 -8.79985229 13.64203156 -9.52581787 13.62062073 C-11.76711681 13.55546163 -14.00852864 13.49639752 -16.25 13.4375 C-17.77344897 13.39428274 -19.29688671 13.35066743 -20.8203125 13.30664062 C-24.54675591 13.19981509 -28.27332494 13.09845361 -32 13 C-32 12.67 -32 12.34 -32 12 C-17.15 11.505 -17.15 11.505 -2 11 C-2.99 10.01 -3.98 9.02 -5 8 C-4.1875 5.5625 -4.1875 5.5625 -3 3 C-2.01 2.67 -1.02 2.34 0 2 C0 1.34 0 0.68 0 0 Z " fill="#363634" transform="translate(396,61)"/>
<path d="M0 0 C2.19921875 -0.28125 2.19921875 -0.28125 5 0 C7.45703125 1.96875 7.45703125 1.96875 9.8125 4.5 C10.60269531 5.3353125 11.39289063 6.170625 12.20703125 7.03125 C13.09455078 8.00578125 13.09455078 8.00578125 14 9 C13.34 9.66 12.68 10.32 12 11 C11.34 11 10.68 11 10 11 C8.43733479 12.099763 8.43733479 12.099763 6.875 13.5 C5.92625 14.325 4.9775 15.15 4 16 C1.69 13.69 -0.62 11.38 -3 9 C-1.74458443 6.48916886 -0.49936512 6.12874554 2 5 C1.01 4.01 0.02 3.02 -1 2 C-0.67 1.34 -0.34 0.68 0 0 Z " fill="#262624" transform="translate(386,52)"/>
<path d="M0 0 C1.73224387 1.46574481 3.46226565 2.9342793 5.17578125 4.421875 C6.57858364 5.63543424 8.00354151 6.82341867 9.4375 8 C11.55944797 10.7160934 11.30475871 12.6476542 11 16 C7.37 16 3.74 16 0 16 C0 10.72 0 5.44 0 0 Z " fill="#CDCCC9" transform="translate(192,248)"/>
<path d="M0 0 C0 6.93 0 13.86 0 21 C-7.875 14.25 -7.875 14.25 -11 10 C-9.35718838 8.33035479 -7.71067239 6.6643536 -6.0625 5 C-5.14597656 4.071875 -4.22945312 3.14375 -3.28515625 2.1875 C-1 0 -1 0 0 0 Z " fill="#F0EFEA" transform="translate(203,170)"/>
<path d="M0 0 C0 6.6 0 13.2 0 20 C-7 14 -7 14 -10 11 C-8.59698853 7.81326038 -6.92234929 5.67778594 -4.4375 3.25 C-3.81746094 2.63640625 -3.19742188 2.0228125 -2.55859375 1.390625 C-1 0 -1 0 0 0 Z " fill="#F2F0EB" transform="translate(203,222)"/>
<path d="M0 0 C3.875 0.875 3.875 0.875 5 2 C5.09823996 3.47648876 5.12973519 4.95775417 5.125 6.4375 C5.12757813 7.24058594 5.13015625 8.04367188 5.1328125 8.87109375 C5 11 5 11 4 13 C1.03 13 -1.94 13 -5 13 C-4.67 12.34 -4.34 11.68 -4 11 C-4.66 10.67 -5.32 10.34 -6 10 C-7.09036928 7.0262656 -7.03864166 6.11592499 -6 3 C-4.02 2.67 -2.04 2.34 0 2 C0 1.34 0 0.68 0 0 Z " fill="#1F1F1D" transform="translate(406,70)"/>
<path d="M0 0 C7.875 6.75 7.875 6.75 10 11 C8.52386015 12.50297876 7.04400843 14.00231285 5.5625 15.5 C4.73878906 16.3353125 3.91507813 17.170625 3.06640625 18.03125 C1 20 1 20 0 20 C0 13.4 0 6.8 0 0 Z " fill="#F3F1EC" transform="translate(192,196)"/>
<path d="M0 0 C0.33 0.66 0.66 1.32 1 2 C1.66 2 2.32 2 3 2 C3 1.34 3 0.68 3 0 C7.875 0.875 7.875 0.875 9 2 C9 3.65 9 5.3 9 7 C5.7 7 2.4 7 -1 7 C-0.67 4.69 -0.34 2.38 0 0 Z " fill="#F2EFEA" transform="translate(194,256)"/>
<path d="M0 0 C1.98 1.65 3.96 3.3 6 5 C5.67 5.66 5.34 6.32 5 7 C4.01 7 3.02 7 2 7 C2.33 10.63 2.66 14.26 3 18 C2.01 18.66 1.02 19.32 0 20 C0 13.4 0 6.8 0 0 Z " fill="#D3D1CE" transform="translate(192,196)"/>
<path d="M0 0 C-0.92652701 1.17539996 -1.86663387 2.34010577 -2.8125 3.5 C-3.33457031 4.1496875 -3.85664063 4.799375 -4.39453125 5.46875 C-6 7 -6 7 -9 7 C-8.814375 6.38125 -8.62875 5.7625 -8.4375 5.125 C-7.76313824 2.95839822 -7.76313824 2.95839822 -9 1 C-5.8035914 -0.06546953 -3.34252724 -0.07427838 0 0 Z " fill="#2C2C2A" transform="translate(378,58)"/>
<path d="M0 0 C0.33 0.66 0.66 1.32 1 2 C0.01 2.61875 -0.98 3.2375 -2 3.875 C-2.99 4.57625 -3.98 5.2775 -5 6 C-5 6.66 -5 7.32 -5 8 C-5.66 8 -6.32 8 -7 8 C-7 6.02 -7 4.04 -7 2 C-4.69 1.34 -2.38 0.68 0 0 Z " fill="#31312F" transform="translate(348,100)"/>
<path d="M0 0 C2.125 0.9375 2.125 0.9375 4 2 C0.93882432 4.62386487 0.26826873 5 -4 5 C-2.25 1.125 -2.25 1.125 0 0 Z " fill="#292927" transform="translate(393,226)"/>
<path d="M0 0 C0.99 0.66 1.98 1.32 3 2 C2.01 3.32 1.02 4.64 0 6 C-1.32 5.34 -2.64 4.68 -4 4 C-4 3.34 -4 2.68 -4 2 C-2.68 1.34 -1.36 0.68 0 0 Z " fill="#272826" transform="translate(377,124)"/>
<path d="M0 0 C0.33 0 0.66 0 1 0 C1 3.63 1 7.26 1 11 C-0.46132217 8.07735566 -1.34099246 6.07536854 -2 3 C-1.34 3 -0.68 3 0 3 C0 2.01 0 1.02 0 0 Z " fill="#393837" transform="translate(335,152)"/>
</svg>
